HIERARCHY
ROOT hip
{
  OFFSET 1.07303 95.7655 0.46816
  CHANNELS 6 Xposition Yposition Zposition Zrotation Xrotation Yrotation
  JOINT abdomen
  {
    OFFSET -0.835213 7.19187 -0.000149727
    CHANNELS 6 Xposition Yposition Zposition Zrotation Xrotation Yrotation
    JOINT chest
    {
      OFFSET 0.000581741 16.5492 -0.000204086
      CHANNELS 6 Xposition Yposition Zposition Zrotation Xrotation Yrotation
      JOINT neck
      {
        OFFSET 0 34.2154 0.000256062
        CHANNELS 6 Xposition Yposition Zposition Zrotation Xrotation Yrotation
        JOINT head
        {
          OFFSET 0 6.29235 0
          CHANNELS 6 Xposition Yposition Zposition Zrotation Xrotation Yrotation
          End Site
          {
            OFFSET 0 0 0
          }
        }
      }
      JOINT lCollar
      {
        OFFSET 4.06394 26.6115 -1.12344
        CHANNELS 6 Xposition Yposition Zposition Zrotation Xrotation Yrotation
        JOINT lShldr
        {
          OFFSET 14.1772 -1.52588e-05 0
          CHANNELS 6 Xposition Yposition Zposition Zrotation Xrotation Yrotation
          JOINT lForeArm
          {
            OFFSET 26.1234 0 0
            CHANNELS 6 Xposition Yposition Zposition Zrotation Xrotation Yrotation
            JOINT lHand
            {
              OFFSET 27.7188 0 0
              CHANNELS 6 Xposition Yposition Zposition Zrotation Xrotation Yrotation
              JOINT lThumb1
              {
                OFFSET 2.29793 -0.468456 1.83133
                CHANNELS 6 Xposition Yposition Zposition Zrotation Xrotation Yrotation
                JOINT lThumb2
                {
                  OFFSET 5.29526 0 0
                  CHANNELS 6 Xposition Yposition Zposition Zrotation Xrotation Yrotation
                  JOINT lThumb3
                  {
                    OFFSET 3.01811 0 0
                    CHANNELS 6 Xposition Yposition Zposition Zrotation Xrotation Yrotation
                    End Site
                    {
                      OFFSET 0 0 0
                    }
                  }
                }
              }
              JOINT lIndex1
              {
                OFFSET 9.37931 0.299057 2.59235
                CHANNELS 6 Xposition Yposition Zposition Zrotation Xrotation Yrotation
                JOINT lIndex2
                {
                  OFFSET 4.34608 0 0
                  CHANNELS 6 Xposition Yposition Zposition Zrotation Xrotation Yrotation
                  JOINT lIndex3
                  {
                    OFFSET 2.1666 0 0
                    CHANNELS 6 Xposition Yposition Zposition Zrotation Xrotation Yrotation
                    End Site
                    {
                      OFFSET 0 0 0
                    }
                  }
                }
              }
              JOINT lMid1
              {
                OFFSET 9.47694 0.837639 0.294667
                CHANNELS 6 Xposition Yposition Zposition Zrotation Xrotation Yrotation
                JOINT lMid2
                {
                  OFFSET 4.77204 0 0
                  CHANNELS 6 Xposition Yposition Zposition Zrotation Xrotation Yrotation
                  JOINT lMid3
                  {
                    OFFSET 2.87217 -1.33514e-05 0
                    CHANNELS 6 Xposition Yposition Zposition Zrotation Xrotation Yrotation
                    End Site
                    {
                      OFFSET 0 0 0
                    }
                  }
                }
              }
              JOINT lRing1
              {
                OFFSET 8.65864 1.01763 -1.70161
                CHANNELS 6 Xposition Yposition Zposition Zrotation Xrotation Yrotation
                JOINT lRing2
                {
                  OFFSET 4.5461 0 0
                  CHANNELS 6 Xposition Yposition Zposition Zrotation Xrotation Yrotation
                  JOINT lRing3
                  {
                    OFFSET 2.50603 0 0
                    CHANNELS 6 Xposition Yposition Zposition Zrotation Xrotation Yrotation
                    End Site
                    {
                      OFFSET 0 0 0
                    }
                  }
                }
              }
              JOINT lPinky1
              {
                OFFSET 7.69005 0.661793 -3.9096
                CHANNELS 6 Xposition Yposition Zposition Zrotation Xrotation Yrotation
                JOINT lPinky2
                {
                  OFFSET 3.21192 0 0
                  CHANNELS 6 Xposition Yposition Zposition Zrotation Xrotation Yrotation
                  JOINT lPinky3
                  {
                    OFFSET 1.92397 0 0
                    CHANNELS 6 Xposition Yposition Zposition Zrotation Xrotation Yrotation
                    End Site
                    {
                      OFFSET 0 0 0
                    }
                  }
                }
              }
            }
          }
        }
      }
      JOINT rCollar
      {
        OFFSET -4.06771 26.6109 -1.12341
        CHANNELS 6 Xposition Yposition Zposition Zrotation Xrotation Yrotation
        JOINT rShldr
        {
          OFFSET -14.1772 0 0
          CHANNELS 6 Xposition Yposition Zposition Zrotation Xrotation Yrotation
          JOINT rForeArm
          {
            OFFSET -26.1234 0 0
            CHANNELS 6 Xposition Yposition Zposition Zrotation Xrotation Yrotation
            JOINT rHand
            {
              OFFSET -27.7188 0 0
              CHANNELS 6 Xposition Yposition Zposition Zrotation Xrotation Yrotation
              JOINT rThumb1
              {
                OFFSET -2.29793 -0.468453 1.83133
                CHANNELS 6 Xposition Yposition Zposition Zrotation Xrotation Yrotation
                JOINT rThumb2
                {
                  OFFSET -5.29526 0 0
                  CHANNELS 6 Xposition Yposition Zposition Zrotation Xrotation Yrotation
                  JOINT rThumb3
                  {
                    OFFSET -3.01812 0 0
                    CHANNELS 6 Xposition Yposition Zposition Zrotation Xrotation Yrotation
                    End Site
                    {
                      OFFSET 0 0 0
                    }
                  }
                }
              }
              JOINT rIndex1
              {
                OFFSET -9.37931 0.299057 2.59235
                CHANNELS 6 Xposition Yposition Zposition Zrotation Xrotation Yrotation
                JOINT rIndex2
                {
                  OFFSET -4.34608 0 0
                  CHANNELS 6 Xposition Yposition Zposition Zrotation Xrotation Yrotation
                  JOINT rIndex3
                  {
                    OFFSET -2.16662 0 0
                    CHANNELS 6 Xposition Yposition Zposition Zrotation Xrotation Yrotation
                    End Site
                    {
                      OFFSET 0 0 0
                    }
                  }
                }
              }
              JOINT rMid1
              {
                OFFSET -9.47695 0.837639 0.294662
                CHANNELS 6 Xposition Yposition Zposition Zrotation Xrotation Yrotation
                JOINT rMid2
                {
                  OFFSET -4.77205 0 0
                  CHANNELS 6 Xposition Yposition Zposition Zrotation Xrotation Yrotation
                  JOINT rMid3
                  {
                    OFFSET -2.87217 -1.14441e-05 0
                    CHANNELS 6 Xposition Yposition Zposition Zrotation Xrotation Yrotation
                    End Site
                    {
                      OFFSET 0 0 0
                    }
                  }
                }
              }
              JOINT rRing1
              {
                OFFSET -8.65864 1.01763 -1.70162
                CHANNELS 6 Xposition Yposition Zposition Zrotation Xrotation Yrotation
                JOINT rRing2
                {
                  OFFSET -4.54611 0 0
                  CHANNELS 6 Xposition Yposition Zposition Zrotation Xrotation Yrotation
                  JOINT rRing3
                  {
                    OFFSET -2.50603 0 0
                    CHANNELS 6 Xposition Yposition Zposition Zrotation Xrotation Yrotation
                    End Site
                    {
                      OFFSET 0 0 0
                    }
                  }
                }
              }
              JOINT rPinky1
              {
                OFFSET -7.69006 0.661793 -3.90961
                CHANNELS 6 Xposition Yposition Zposition Zrotation Xrotation Yrotation
                JOINT rPinky2
                {
                  OFFSET -3.21191 0 0
                  CHANNELS 6 Xposition Yposition Zposition Zrotation Xrotation Yrotation
                  JOINT rPinky3
                  {
                    OFFSET -1.92397 0 0
                    CHANNELS 6 Xposition Yposition Zposition Zrotation Xrotation Yrotation
                    End Site
                    {
                      OFFSET 0 0 0
                    }
                  }
                }
              }
            }
          }
        }
      }
    }
  }
  JOINT lThigh
  {
    OFFSET 8.73786 -0.0029068 0.000545025
    CHANNELS 6 Xposition Yposition Zposition Zrotation Xrotation Yrotation
    JOINT lShin
    {
      OFFSET 0 -46.6676 0
      CHANNELS 6 Xposition Yposition Zposition Zrotation Xrotation Yrotation
      JOINT lFoot
      {
        OFFSET 0 -40.1476 -2.00272e-05
        CHANNELS 6 Xposition Yposition Zposition Zrotation Xrotation Yrotation
        JOINT lToes
        {
          OFFSET 0 -8.8846 14.2294
          CHANNELS 6 Xposition Yposition Zposition Zrotation Xrotation Yrotation
          End Site
          {
            OFFSET 0 0 0
          }
        }
      }
    }
  }
  JOINT rThigh
  {
    OFFSET -8.73786 0.00291443 -0.000536442
    CHANNELS 6 Xposition Yposition Zposition Zrotation Xrotation Yrotation
    JOINT rShin
    {
      OFFSET 0 -46.6676 0
      CHANNELS 6 Xposition Yposition Zposition Zrotation Xrotation Yrotation
      JOINT rFoot
      {
        OFFSET 0 -40.1476 -1.14441e-05
        CHANNELS 6 Xposition Yposition Zposition Zrotation Xrotation Yrotation
        JOINT rToes
        {
          OFFSET 0 -8.88459 14.2294
          CHANNELS 6 Xposition Yposition Zposition Zrotation Xrotation Yrotation
          End Site
          {
            OFFSET 0 0 0
          }
        }
      }
    }
  }
}
MOTION
Frames:	4
Frame Time:	0.0333333
1.07303 91.9068 0.46816 -0.391837 -2.77587 -9.88027 -0.5346 7.22063 -7.20024e-05 2.98252 0.581003 -1.84108 0.00332403 16.5504 6.22272e-05 -2.46544 8.2548 -8.04693 0.000580251 34.2138 -0.000358582 -8.69745 17.9616 -5.06469 3.55271e-15 6.29236 -3.8147e-06 9.38013 -11.4833 21.7136 4.06394 26.6115 -1.12344 -0.624083 -4.64041 6.99514 14.1772 -2.84217e-14 -7.15256e-07 -81.913 52.1695 18.1728 26.1234 -1.33514e-05 -1.42109e-14 -5.18467e-05 -4.88785e-05 -23.7697 27.7188 1.90735e-06 5.72204e-06 4.91991 -45.1221 3.75661 2.29793 -0.468456 1.83133 60.4434 57.1458 -83.3576 5.29526 -3.8147e-06 3.33067e-15 -43.6996 3.00833 4.6143 3.0181 -1.90735e-06 3.8147e-06 15.8709 1.85713 0.925561 9.37931 0.299061 2.59235 -16.7328 -0.712243 6.80821 4.34607 9.53674e-07 -1.90735e-06 -8.77334 1.90335 2.50903 2.1666 -1.90735e-06 9.53675e-07 -10.177 1.85725 0.925595 9.47694 0.837635 0.294669 -19.0563 -4.30979 6.10691 4.77204 3.8147e-06 9.53674e-07 -14.5595 1.6592 2.20551 2.87216 -1.14441e-05 3.55271e-15 -7.07979 1.85059 1.33139 8.65865 1.01763 -1.70161 -19.9212 1.24426 6.31051 4.5461 -3.8147e-06 3.55271e-15 -12.8487 1.85725 0.925586 2.50603 1.90735e-06 -1.90735e-06 -3.17592 1.85727 0.925556 7.69006 0.661793 -3.9096 -15.9325 -8.50699 3.94354 3.21191 0 0 -11.5753 1.85725 0.925551 1.92398 1.90735e-06 0 -6.37688 1.85725 0.925563 -4.06771 26.6109 -1.12341 -0.267678 -4.54516 -3.85379 -14.1772 1.52588e-05 2.38419e-06 82.9069 -29.303 16.2418 -26.1234 -3.8147e-06 -3.8147e-06 -3.81128e-06 1.47681e-05 118.942 -27.7188 7.62939e-06 1.14441e-05 -2.26916 -22.7959 27.8995 -2.29791 -0.468452 1.83133 -141.793 4.65187 171.782 -5.29527 0 0 24.8012 0.357907 22.0005 -3.01811 0 7.62939e-06 -10.6476 -0.0290373 -0.338342 -9.3793 0.299059 2.59235 7.40584 -3.36315 -19.2863 -4.34608 -3.8147e-06 -7.10543e-15 8.29742 0.189844 -1.09341 -2.16661 7.10543e-15 -7.6294e-06 10.4526 -0.0976987 -0.992626 -9.47693 0.837637 0.294668 32.858 -1.32942 -13.9284 -4.77204 -7.62939e-06 0 31.2398 -0.922718 -2.11917 -2.87216 -3.05176e-05 7.6294e-06 7.2109 0.0569262 -2.14416 -8.65865 1.01763 -1.70161 22.5661 -10.5823 -17.1006 -4.54613 7.62939e-06 7.6294e-06 56.0825 -0.622439 -0.480836 -2.50601 -1.52588e-05 -2.28882e-05 9.02249 -0.00809377 -1.26286 -7.69003 0.661795 -3.90961 17.2819 -25.9381 -8.78883 -3.21193 7.62939e-06 -7.10543e-15 60.3825 -3.86866 -3.21235 -1.92397 -2.84217e-14 3.8147e-06 60.7019 -3.80559 -3.14543 8.73786 -0.00289154 0.000545025 -0.840206 -8.0746 24.9494 -3.33786e-06 -46.6676 3.8147e-06 -1.75084e-06 30.9463 2.8309e-05 1.72853e-06 -40.1476 -2.86102e-06 0.992114 -21.4753 -13.4131 2.27988e-06 -8.88459 14.2294 0.000148557 1.75024e-05 -2.43259e-05 -8.73786 0.00291443 -0.000536919 -10.5158 -33.9735 -47.0584 -5.72204e-06 -46.6676 7.62939e-06 4.7704e-05 70.8636 -4.68794e-05 -7.62939e-06 -40.1476 -4.76837e-06 18.9844 12.9918 -13.9475 0 -8.8846 14.2294 -2.30519e-05 1.19528e-05 4.09811e-05 
1.07303 91.9051 0.46816 -0.441997 -2.76713 -9.8826 -0.541009 7.22015 -7.43866e-05 3.03053 0.581326 -1.84157 0.00332546 16.5505 6.6042e-05 -2.47535 8.25738 -8.04848 0.000571787 34.2137 -0.00035286 -8.70127 17.953 -5.06754 -1.90735e-06 6.29236 -3.8147e-06 9.39489 -11.4705 21.7267 4.06393 26.6115 -1.12344 -0.617693 -4.63973 7.00567 14.1772 0 7.15256e-07 -81.9231 52.244 18.258 26.1234 -5.72205e-06 0 -2.29935e-05 -6.46733e-05 -23.852 27.7188 -1.90735e-06 1.14441e-05 4.91874 -45.0927 3.77045 2.29792 -0.468453 1.83133 60.4974 57.1479 -83.3883 5.29528 -7.62939e-06 -3.8147e-06 -43.7007 3.03771 4.62904 3.0181 -1.90735e-06 3.8147e-06 15.8717 1.8865 0.940168 9.3793 0.299061 2.59235 -16.735 -0.682942 6.82285 4.34608 9.53674e-07 -9.53675e-07 -8.77336 1.93274 2.52369 2.1666 1.90735e-06 0 -10.1761 1.88664 0.940228 9.47694 0.837643 0.294667 -19.0582 -4.28045 6.12143 4.77204 0 9.53674e-07 -14.5593 1.68858 2.22017 2.87215 -1.52588e-05 -1.90735e-06 -7.07923 1.88001 1.34601 8.65864 1.01764 -1.70161 -19.9231 1.27358 6.32522 4.54611 -9.53675e-06 -3.55271e-15 -12.8479 1.88662 0.940222 2.50603 3.8147e-06 -1.90735e-06 -3.17513 1.88667 0.940181 7.69005 0.661797 -3.90961 -15.9332 -8.47761 3.95809 3.21193 3.8147e-06 0 -11.5744 1.88661 0.940182 1.92397 -5.72205e-06 0 -6.3761 1.88664 0.940213 -4.06772 26.6109 -1.12341 -0.269492 -4.54502 -3.85715 -14.1772 -3.05176e-05 1.43051e-06 82.9518 -29.3715 16.2589 -26.1234 -7.10543e-15 -7.10543e-15 1.93893e-06 -7.44393e-06 119.199 -27.7188 -3.8147e-06 1.14441e-05 -2.25624 -22.8425 27.946 -2.29794 -0.468456 1.83133 -141.793 4.65186 171.782 -5.29527 0 -3.8147e-06 24.8012 0.357899 22.0005 -3.01811 -3.8147e-06 1.42109e-14 -10.6476 -0.0290228 -0.338361 -9.37932 0.299055 2.59235 7.40584 -3.36315 -19.2863 -4.3461 -3.8147e-06 -3.8147e-06 8.29742 0.18985 -1.0934 -2.16661 3.8147e-06 -3.8147e-06 10.4526 -0.0977034 -0.992633 -9.47696 0.837632 0.294674 32.858 -1.32941 -13.9285 -4.77205 -7.6294e-06 3.8147e-06 31.2398 -0.922725 -2.11917 -2.87215 -1.52588e-05 -1.90735e-05 7.21094 0.0569143 -2.14416 -8.65865 1.01763 -1.70161 22.5661 -10.5823 -17.1006 -4.54613 3.8147e-06 7.62939e-06 56.0825 -0.622431 -0.48083 -2.50603 0 -7.62939e-06 9.02249 -0.00809548 -1.26287 -7.69004 0.661799 -3.90961 17.2819 -25.938 -8.78882 -3.21193 0 -7.62939e-06 60.3825 -3.86866 -3.21234 -1.92398 0 7.62939e-06 60.7019 -3.80559 -3.14542 8.73786 -0.00289917 0.000545025 -0.793827 -8.07844 24.9434 -9.53674e-07 -46.6676 -3.8147e-06 -1.56493e-05 30.9544 3.54048e-05 5.06639e-06 -40.1476 -2.43187e-05 0.997655 -21.4805 -13.4168 3.74764e-06 -8.88459 14.2294 0.000161363 3.09493e-05 -2.82079e-05 -8.73786 0.0029068 -0.000535965 -10.4644 -33.9765 -47.0609 -3.8147e-06 -46.6676 1.90735e-05 5.68097e-06 70.8805 -7.81988e-06 -5.72205e-06 -40.1476 -1.43051e-05 18.9888 12.9941 -13.9493 1.90735e-06 -8.8846 14.2294 -2.81745e-05 8.53774e-06 6.14717e-05 
1.07303 91.9033 0.46816 -0.49071 -2.75866 -9.88486 -0.547232 7.21967 -7.48635e-05 3.07701 0.581664 -1.84204 0.00332594 16.5505 6.53267e-05 -2.48455 8.25981 -8.05 0.000580966 34.2137 -0.000349998 -8.70518 17.9443 -5.07044 -1.90735e-06 6.29236 -7.10543e-15 9.40906 -11.4575 21.7395 4.06394 26.6115 -1.12343 -0.611239 -4.63904 7.01635 14.1772 -1.52588e-05 7.15256e-07 -81.9342 52.3184 18.3432 26.1234 -9.53675e-06 -1.52588e-05 -3.7545e-05 -6.67011e-05 -23.934 27.7188 -3.8147e-06 5.72205e-06 4.91761 -45.0635 3.78422 2.29793 -0.468453 1.83133 60.551 57.15 -83.4188 5.29526 -7.10543e-15 1.90735e-06 -43.7017 3.06684 4.64362 3.01811 3.55271e-15 -1.77636e-15 15.8724 1.91565 0.954708 9.37931 0.299065 2.59235 -16.7372 -0.65387 6.83734 4.34608 1.90735e-06 -1.77636e-15 -8.77336 1.96188 2.53823 2.16661 -1.90735e-06 0 -10.1754 1.91577 0.954728 9.47693 0.837643 0.294669 -19.06 -4.25136 6.13583 4.77205 1.90735e-06 1.90735e-06 -14.5592 1.71773 2.23468 2.87217 -1.71661e-05 3.55271e-15 -7.07862 1.90914 1.36055 8.65864 1.01763 -1.70161 -19.9251 1.30266 6.33979 4.5461 -7.62939e-06 -3.55271e-15 -12.8471 1.91578 0.954716 2.50603 3.8147e-06 -1.90735e-06 -3.17434 1.9158 0.954707 7.69005 0.661797 -3.9096 -15.934 -8.44847 3.97251 3.21192 0 0 -11.5737 1.91576 0.954693 1.92398 5.72205e-06 0 -6.3753 1.91579 0.954691 -4.06771 26.6109 -1.12341 -0.27134 -4.54488 -3.86055 -14.1772 1.52588e-05 1.43051e-06 82.9951 -29.4381 16.2755 -26.1234 7.10543e-15 7.62939e-06 1.32866e-05 7.50308e-06 119.454 -27.7188 7.62939e-06 -7.62939e-06 -2.24387 -22.8872 27.9906 -2.29793 -0.468454 1.83133 -141.793 4.65184 171.782 -5.29525 1.42109e-14 -3.8147e-06 24.8012 0.357892 22.0005 -3.01811 7.6294e-06 -1.14441e-05 -10.6476 -0.0290309 -0.338341 -9.3793 0.299053 2.59235 7.40583 -3.36315 -19.2863 -4.34607 -7.62939e-06 3.8147e-06 8.29744 0.189859 -1.0934 -2.16661 7.6294e-06 3.8147e-06 10.4526 -0.0977119 -0.992628 -9.47693 0.83763 0.294668 32.858 -1.32941 -13.9284 -4.77206 1.42109e-14 3.8147e-06 31.2398 -0.92273 -2.11915 -2.87216 -1.52588e-05 -1.14441e-05 7.21091 0.0569262 -2.14418 -8.65865 1.01762 -1.70161 22.5661 -10.5823 -17.1006 -4.54611 7.10543e-15 0 56.0824 -0.622441 -0.480838 -2.50603 0 -7.10543e-15 9.02254 -0.0080989 -1.26284 -7.69005 0.661789 -3.90961 17.2819 -25.9381 -8.78882 -3.21194 3.8147e-06 3.8147e-06 60.3825 -3.86867 -3.21235 -1.92397 -1.52588e-05 -1.42108e-14 60.7019 -3.80558 -3.14543 8.73786 -0.00291443 0.000544548 -0.74899 -8.08232 24.9373 -3.33786e-06 -46.6676 -1.90735e-06 -4.4282e-06 30.9626 3.26698e-05 1.54972e-06 -40.1476 -1.04904e-05 1.00328 -21.4858 -13.4206 1.6503e-06 -8.8846 14.2294 0.000146422 3.28703e-05 -2.42925e-05 -8.73786 0.0029068 -0.000536919 -10.4145 -33.9795 -47.0633 1.90735e-06 -46.6676 -1.14441e-05 4.91235e-05 70.8977 -3.39156e-05 -5.72205e-06 -40.1476 9.53674e-07 18.9932 12.9963 -13.9511 1.90735e-06 -8.8846 14.2294 -3.07359e-05 -5.12264e-06 4.95189e-05 
1.07303 91.9016 0.46816 -0.537895 -2.75044 -9.88704 -0.55326 7.21922 -7.6294e-05 3.12185 0.581996 -1.8425 0.00332642 16.5505 6.53267e-05 -2.49306 8.26212 -8.05149 0.00057286 34.2137 -0.000358582 -8.70912 17.9355 -5.07338 0 6.29236 -3.8147e-06 9.42264 -11.4444 21.7521 4.06393 26.6115 -1.12344 -0.604661 -4.63835 7.02719 14.1772 -1.52588e-05 -2.38419e-07 -81.9463 52.3928 18.4286 26.1234 -1.14441e-05 1.42109e-14 -3.01794e-05 -5.35743e-05 -24.0156 27.7188 -5.72204e-06 9.53674e-06 4.91644 -45.0346 3.79782 2.29791 -0.468452 1.83133 60.6042 57.152 -83.4491 5.29528 7.10542e-15 1.77636e-15 -43.7028 3.09571 4.65809 3.0181 0 3.8147e-06 15.8732 1.94455 0.969083 9.3793 0.299065 2.59236 -16.7394 -0.625059 6.85173 4.34609 9.53674e-07 9.53675e-07 -8.7734 1.99079 2.55264 2.16659 -3.8147e-06 -1.90735e-06 -10.1746 1.94468 0.969116 9.47692 0.837642 0.294669 -19.0619 -4.22253 6.15008 4.77205 -1.90735e-06 9.53674e-07 -14.5591 1.74663 2.2491 2.87216 -1.33514e-05 1.90735e-06 -7.07805 1.93804 1.37493 8.65863 1.01764 -1.70161 -19.927 1.33149 6.35424 4.54611 -3.8147e-06 1.90735e-06 -12.8463 1.94468 0.969105 2.50603 3.8147e-06 3.55271e-15 -3.17353 1.94468 0.969085 7.69005 0.661796 -3.90961 -15.9347 -8.4196 3.98679 3.21193 5.72205e-06 1.77636e-15 -11.5729 1.94467 0.969079 1.92396 -3.8147e-06 -1.77636e-15 -6.37453 1.94467 0.969095 -4.06771 26.6109 -1.12342 -0.273171 -4.54474 -3.86394 -14.1772 2.84217e-14 1.19209e-06 83.0366 -29.5028 16.2917 -26.1234 -3.8147e-06 -7.10543e-15 4.01063e-06 -1.5123e-05 119.706 -27.7188 0 -3.8147e-06 -2.23191 -22.9301 28.0334 -2.29791 -0.468456 1.83133 -141.793 4.65186 171.782 -5.29527 1.42109e-14 -5.72204e-06 24.8012 0.357892 22.0005 -3.01811 -3.8147e-06 0 -10.6476 -0.029027 -0.338352 -9.37931 0.299053 2.59235 7.40583 -3.36315 -19.2863 -4.3461 -5.72205e-06 3.8147e-06 8.29743 0.18985 -1.0934 -2.16661 3.8147e-06 7.10543e-15 10.4526 -0.0976991 -0.992617 -9.47693 0.837635 0.294664 32.858 -1.32941 -13.9285 -4.77206 0 3.8147e-06 31.2398 -0.922721 -2.11917 -2.87217 0 -3.8147e-06 7.21092 0.056916 -2.14416 -8.65863 1.01763 -1.70161 22.5661 -10.5823 -17.1006 -4.5461 -3.8147e-06 7.10543e-15 56.0825 -0.62243 -0.480835 -2.50603 1.52588e-05 3.8147e-06 9.02252 -0.00810914 -1.26286 -7.69002 0.661793 -3.90961 17.2819 -25.9381 -8.78883 -3.21194 3.8147e-06 7.62939e-06 60.3825 -3.86867 -3.21236 -1.92397 -1.52588e-05 -7.62939e-06 60.7019 -3.80559 -3.14542 8.73786 -0.00289917 0.000544548 -0.705765 -8.08624 24.9311 -8.10623e-06 -46.6676 1.90735e-06 -2.88523e-06 30.971 2.55158e-05 -5.36442e-06 -40.1476 -8.58307e-06 1.00897 -21.4911 -13.4244 2.33948e-06 -8.8846 14.2294 0.00014941 3.12695e-05 -2.28451e-05 -8.73786 0.00289917 -0.000536919 -10.3661 -33.9825 -47.0658 -3.8147e-06 -46.6676 -7.10543e-15 7.10938e-05 70.9151 -8.87802e-05 -9.53674e-06 -40.1476 4.76837e-06 18.9977 12.9986 -13.9529 -3.55271e-15 -8.88459 14.2294 -1.96368e-05 1.70755e-06 5.97642e-05 
